<svg width="18" height="15" viewBox="0 0 18 15" fill="none" xmlns="http://www.w3.org/2000/svg">
<g clip-path="url(#clip0_90_1094)">
<path d="M2.7 3.8998C2.7 2.94503 3.07928 2.02935 3.75442 1.35422C4.42955 0.679089 5.34522 0.299805 6.3 0.299805C7.25478 0.299805 8.17045 0.679089 8.84558 1.35422C9.52072 2.02935 9.9 2.94503 9.9 3.8998C9.9 4.85458 9.52072 5.77026 8.84558 6.44539C8.17045 7.12052 7.25478 7.4998 6.3 7.4998C5.34522 7.4998 4.42955 7.12052 3.75442 6.44539C3.07928 5.77026 2.7 4.85458 2.7 3.8998ZM0 13.8645C0 11.0942 2.24437 8.8498 5.01469 8.8498H7.58531C10.3556 8.8498 12.6 11.0942 12.6 13.8645C12.6 14.3257 12.2259 14.6998 11.7647 14.6998H0.835312C0.374063 14.6998 0 14.3257 0 13.8645ZM14.175 9.0748V7.2748H12.375C12.0009 7.2748 11.7 6.97387 11.7 6.5998C11.7 6.22574 12.0009 5.9248 12.375 5.9248H14.175V4.1248C14.175 3.75074 14.4759 3.4498 14.85 3.4498C15.2241 3.4498 15.525 3.75074 15.525 4.1248V5.9248H17.325C17.6991 5.9248 18 6.22574 18 6.5998C18 6.97387 17.6991 7.2748 17.325 7.2748H15.525V9.0748C15.525 9.44887 15.2241 9.7498 14.85 9.7498C14.4759 9.7498 14.175 9.44887 14.175 9.0748Z" fill="white"/>
</g>
<defs>
<clipPath id="clip0_90_1094">
<rect width="18" height="14.4" fill="white" transform="translate(0 0.299805)"/>
</clipPath>
</defs>
</svg>
