<svg width="27" height="26" viewBox="0 0 27 26" fill="none" xmlns="http://www.w3.org/2000/svg">
<path d="M2.13632 0.391358C1.88636 0.391174 1.63882 0.440248 1.40784 0.535775C1.17685 0.631302 0.966958 0.77141 0.790146 0.948092C0.613334 1.12477 0.473072 1.33457 0.377375 1.56548C0.281678 1.79639 0.232422 2.0439 0.232422 2.29386V15.617C0.232422 15.8669 0.281678 16.1144 0.377375 16.3453C0.473072 16.5763 0.613334 16.786 0.790146 16.9627C0.966958 17.1394 1.17685 17.2795 1.40784 17.375C1.63882 17.4706 1.88636 17.5196 2.13632 17.5195H4.03882V18.9134C4.0384 19.178 4.10988 19.4377 4.24563 19.6648C4.38137 19.8919 4.57628 20.0778 4.80951 20.2027C5.04275 20.3276 5.30553 20.3867 5.56978 20.3738C5.83403 20.3609 6.08981 20.2765 6.30977 20.1294L10.224 17.5195H17.3605C17.6105 17.5196 17.858 17.4706 18.089 17.375C18.32 17.2795 18.5299 17.1394 18.7067 16.9627C18.8835 16.786 19.0238 16.5763 19.1195 16.3453C19.2152 16.1144 19.2644 15.8669 19.2644 15.617V2.29386C19.2644 2.0439 19.2152 1.79639 19.1195 1.56548C19.0238 1.33457 18.8835 1.12477 18.7067 0.948092C18.5299 0.77141 18.32 0.631302 18.089 0.535775C17.858 0.440248 17.6105 0.391174 17.3605 0.391358H2.13632ZM24.5937 5.81586C25.9246 5.81586 26.8772 6.76711 26.8772 8.09942V20.4699C26.8772 21.8022 25.9246 22.7534 24.5937 22.7534H22.1196V24.4668C22.1233 24.6632 22.0717 24.8568 21.9706 25.0252C21.8695 25.1937 21.7231 25.3303 21.548 25.4195C21.3518 25.5147 21.1669 25.6086 20.9778 25.6086C20.7873 25.6086 20.5967 25.6086 20.4062 25.4181L16.4093 22.5629H12.9839C11.6516 22.5629 10.7004 21.6117 10.7004 20.2793V18.7579H17.7416C19.2644 18.7579 20.5967 17.427 20.5967 15.9042V5.81726H24.5937V5.81586ZM4.08645 12.4284L6.56054 5.2779C6.81412 4.59143 7.24281 4.23138 7.84522 4.19776C8.44763 4.19776 8.89174 4.5578 9.17613 5.27649L11.5578 12.4298C11.6222 12.6343 11.653 12.8066 11.653 12.9439C11.6222 13.4567 11.3364 13.7145 10.797 13.7145C10.3515 13.7145 10.0517 13.5099 9.89202 13.098L9.55999 11.8638H6.17808L5.79842 13.0966C5.63872 13.5099 5.33891 13.7145 4.89341 13.7145C4.35404 13.7145 4.06824 13.4413 4.03742 12.8921C4.03742 12.7898 4.05423 12.6679 4.08505 12.5321V12.4298L4.08645 12.4284ZM7.84522 6.25576L6.70344 10.0608H8.987L7.84522 6.25576ZM12.6029 12.7842V5.23307C12.6365 4.57742 12.9531 4.23278 13.5555 4.19776C14.1565 4.23138 14.4731 4.57742 14.5068 5.23166V12.7828C14.4731 13.4034 14.1565 13.7131 13.5541 13.7131C12.9531 13.7131 12.6365 13.4034 12.6029 12.7828V12.7842Z" fill="#17B0A7"/>
</svg>
