<svg width="15" height="15" viewBox="0 0 15 15" fill="none" xmlns="http://www.w3.org/2000/svg">
<g clip-path="url(#clip0_129_1664)">
<g clip-path="url(#clip1_129_1664)">
<path d="M7.5 15C9.48912 15 11.3968 14.2098 12.8033 12.8033C14.2098 11.3968 15 9.48912 15 7.5C15 5.51088 14.2098 3.60322 12.8033 2.1967C11.3968 0.790176 9.48912 0 7.5 0C5.51088 0 3.60322 0.790176 2.1967 2.1967C0.790176 3.60322 0 5.51088 0 7.5C0 9.48912 0.790176 11.3968 2.1967 12.8033C3.60322 14.2098 5.51088 15 7.5 15ZM7.5 4.6875C8.24592 4.6875 8.96129 4.98382 9.48874 5.51126C10.0162 6.03871 10.3125 6.75408 10.3125 7.5C10.3125 8.24592 10.0162 8.96129 9.48874 9.48874C8.96129 10.0162 8.24592 10.3125 7.5 10.3125C6.75408 10.3125 6.03871 10.0162 5.51126 9.48874C4.98382 8.96129 4.6875 8.24592 4.6875 7.5C4.6875 6.75408 4.98382 6.03871 5.51126 5.51126C6.03871 4.98382 6.75408 4.6875 7.5 4.6875Z" fill="#17B0A7"/>
</g>
</g>
<defs>
<clipPath id="clip0_129_1664">
<rect width="15" height="15" fill="white"/>
</clipPath>
<clipPath id="clip1_129_1664">
<rect width="15" height="15" fill="white"/>
</clipPath>
</defs>
</svg>
