<svg width="22" height="22" viewBox="0 0 22 22" fill="none" xmlns="http://www.w3.org/2000/svg">
<path d="M2.75 2.75C2.75 1.98945 2.13555 1.375 1.375 1.375C0.614453 1.375 0 1.98945 0 2.75V17.1875C0 19.0867 1.53828 20.625 3.4375 20.625H20.625C21.3855 20.625 22 20.0105 22 19.25C22 18.4895 21.3855 17.875 20.625 17.875H3.4375C3.05938 17.875 2.75 17.5656 2.75 17.1875V2.75ZM20.2211 6.47109C20.7582 5.93398 20.7582 5.06172 20.2211 4.52461C19.684 3.9875 18.8117 3.9875 18.2746 4.52461L13.75 9.05352L11.2836 6.58711C10.7465 6.05 9.87422 6.05 9.33711 6.58711L4.52461 11.3996C3.9875 11.9367 3.9875 12.809 4.52461 13.3461C5.06172 13.8832 5.93398 13.8832 6.47109 13.3461L10.3125 9.50898L12.7789 11.9754C13.316 12.5125 14.1883 12.5125 14.7254 11.9754L20.2254 6.47539L20.2211 6.47109Z" fill="#1A4D8C"/>
</svg>
