<svg width="32" height="32" viewBox="0 0 32 32" fill="none" xmlns="http://www.w3.org/2000/svg">
<path d="M0 16C0 7.16344 7.16344 0 16 0C24.8366 0 32 7.16344 32 16C32 24.8366 24.8366 32 16 32C7.16344 32 0 24.8366 0 16Z" fill="#FFF5EE"/>
<g clip-path="url(#clip0_129_2028)">
<path d="M20.6481 7.74205C20.8786 7.2069 20.7067 6.5819 20.234 6.23815C19.7614 5.8944 19.1169 5.92565 18.6754 6.30846L8.67545 15.0585C8.28482 15.4022 8.1442 15.953 8.32779 16.4374C8.51138 16.9217 8.98013 17.2499 9.49967 17.2499H13.8551L10.8512 24.2577C10.6208 24.7928 10.7926 25.4178 11.2653 25.7616C11.7379 26.1053 12.3825 26.0741 12.8239 25.6913L22.8239 16.9413C23.2145 16.5975 23.3551 16.0467 23.1715 15.5624C22.9879 15.078 22.5231 14.7538 21.9997 14.7538H17.6442L20.6481 7.74205Z" fill="#FF9D5C"/>
</g>
<defs>
<clipPath id="clip0_129_2028">
<rect width="17.5" height="20" fill="white" transform="translate(7 6)"/>
</clipPath>
</defs>
</svg>
