<svg width="15" height="16" viewBox="0 0 15 16" fill="none" xmlns="http://www.w3.org/2000/svg">
<g clip-path="url(#clip0_139_2462)">
<g clip-path="url(#clip1_139_2462)">
<path d="M7.5 15.5C9.48912 15.5 11.3968 14.7098 12.8033 13.3033C14.2098 11.8968 15 9.98912 15 8C15 6.01088 14.2098 4.10322 12.8033 2.6967C11.3968 1.29018 9.48912 0.5 7.5 0.5C5.51088 0.5 3.60322 1.29018 2.1967 2.6967C0.790176 4.10322 0 6.01088 0 8C0 9.98912 0.790176 11.8968 2.1967 13.3033C3.60322 14.7098 5.51088 15.5 7.5 15.5ZM7.5 4.25C7.88965 4.25 8.20312 4.56348 8.20312 4.95312V8.23438C8.20312 8.62402 7.88965 8.9375 7.5 8.9375C7.11035 8.9375 6.79688 8.62402 6.79688 8.23438V4.95312C6.79688 4.56348 7.11035 4.25 7.5 4.25ZM6.5625 10.8125C6.5625 10.5639 6.66127 10.3254 6.83709 10.1496C7.0129 9.97377 7.25136 9.875 7.5 9.875C7.74864 9.875 7.9871 9.97377 8.16291 10.1496C8.33873 10.3254 8.4375 10.5639 8.4375 10.8125C8.4375 11.0611 8.33873 11.2996 8.16291 11.4754C7.9871 11.6512 7.74864 11.75 7.5 11.75C7.25136 11.75 7.0129 11.6512 6.83709 11.4754C6.66127 11.2996 6.5625 11.0611 6.5625 10.8125Z" fill="white"/>
</g>
</g>
<defs>
<clipPath id="clip0_139_2462">
<rect width="15" height="15" fill="white" transform="translate(0 0.5)"/>
</clipPath>
<clipPath id="clip1_139_2462">
<rect width="15" height="15" fill="white" transform="translate(0 0.5)"/>
</clipPath>
</defs>
</svg>
