<svg width="40" height="40" viewBox="0 0 40 40" fill="none" xmlns="http://www.w3.org/2000/svg">
<path d="M0.400391 19.9999C0.400391 9.17512 9.17561 0.399902 20.0004 0.399902C30.8252 0.399902 39.6004 9.17512 39.6004 19.9999C39.6004 30.8247 30.8252 39.5999 20.0004 39.5999C9.17561 39.5999 0.400391 30.8247 0.400391 19.9999Z" fill="#4F6FE5"/>
<g clip-path="url(#clip0_90_879)">
<path d="M26.5625 18.0312C26.5625 19.9139 25.9514 21.6529 24.9219 23.0639L30.1145 28.2605C30.6271 28.7732 30.6271 29.6059 30.1145 30.1186C29.6018 30.6313 28.7691 30.6313 28.2564 30.1186L23.0639 24.9219C21.6529 25.9555 19.9139 26.5625 18.0312 26.5625C13.3186 26.5625 9.5 22.7439 9.5 18.0312C9.5 13.3186 13.3186 9.5 18.0312 9.5C22.7439 9.5 26.5625 13.3186 26.5625 18.0312ZM18.0312 23.9375C18.8069 23.9375 19.5749 23.7847 20.2915 23.4879C21.0081 23.1911 21.6592 22.756 22.2076 22.2076C22.756 21.6592 23.1911 21.0081 23.4879 20.2915C23.7847 19.5749 23.9375 18.8069 23.9375 18.0312C23.9375 17.2556 23.7847 16.4876 23.4879 15.771C23.1911 15.0544 22.756 14.4033 22.2076 13.8549C21.6592 13.3065 21.0081 12.8714 20.2915 12.5746C19.5749 12.2778 18.8069 12.125 18.0312 12.125C17.2556 12.125 16.4876 12.2778 15.771 12.5746C15.0544 12.8714 14.4033 13.3065 13.8549 13.8549C13.3065 14.4033 12.8714 15.0544 12.5746 15.771C12.2778 16.4876 12.125 17.2556 12.125 18.0312C12.125 18.8069 12.2778 19.5749 12.5746 20.2915C12.8714 21.0081 13.3065 21.6592 13.8549 22.2076C14.4033 22.756 15.0544 23.1911 15.771 23.4879C16.4876 23.7847 17.2556 23.9375 18.0312 23.9375Z" fill="white"/>
</g>
<defs>
<clipPath id="clip0_90_879">
<rect width="21" height="21" fill="white" transform="translate(9.5 9.5)"/>
</clipPath>
</defs>
</svg>
