<svg width="17" height="15" viewBox="0 0 17 15" fill="none" xmlns="http://www.w3.org/2000/svg">
<g clip-path="url(#clip0_129_1670)">
<g clip-path="url(#clip1_129_1670)">
<path d="M8.90625 7.03125V0.486328C8.90625 0.222656 9.11133 0 9.375 0C12.999 0 15.9375 2.93848 15.9375 6.5625C15.9375 6.82617 15.7148 7.03125 15.4512 7.03125H8.90625ZM0.9375 7.96875C0.9375 4.41504 3.57715 1.47363 7.00195 1.00488C7.27148 0.966797 7.5 1.18359 7.5 1.45605V8.4375L12.085 13.0225C12.2812 13.2188 12.2666 13.541 12.041 13.6992C10.8926 14.5195 9.48633 15 7.96875 15C4.08691 15 0.9375 11.8535 0.9375 7.96875ZM16.3594 8.4375C16.6318 8.4375 16.8457 8.66602 16.8105 8.93555C16.585 10.5732 15.7969 12.0293 14.6455 13.1045C14.4697 13.2686 14.1943 13.2568 14.0244 13.084L9.375 8.4375H16.3594Z" fill="#17B0A7"/>
</g>
</g>
<defs>
<clipPath id="clip0_129_1670">
<rect width="16.875" height="15" fill="white"/>
</clipPath>
<clipPath id="clip1_129_1670">
<rect width="16.875" height="15" fill="white"/>
</clipPath>
</defs>
</svg>
