<svg width="32" height="32" viewBox="0 0 32 32" fill="none" xmlns="http://www.w3.org/2000/svg">
<path d="M0 16C0 7.16344 7.16344 0 16 0C24.8366 0 32 7.16344 32 16C32 24.8366 24.8366 32 16 32C7.16344 32 0 24.8366 0 16Z" fill="#F1FCFA"/>
<path d="M24.1357 10.1172C24.624 10.6055 24.624 11.3984 24.1357 11.8867L14.1357 21.8867C13.6475 22.375 12.8545 22.375 12.3662 21.8867L7.36621 16.8867C6.87793 16.3984 6.87793 15.6055 7.36621 15.1172C7.85449 14.6289 8.64746 14.6289 9.13574 15.1172L13.2529 19.2305L22.3701 10.1172C22.8584 9.62891 23.6514 9.62891 24.1396 10.1172H24.1357Z" fill="#3CB371"/>
</svg>
