<svg width="18" height="18" viewBox="0 0 18 18" fill="none" xmlns="http://www.w3.org/2000/svg">
<g clip-path="url(#clip0_139_2546)">
<path d="M3.76304 9.00006C3.76304 8.42856 3.86054 7.88031 4.03304 7.36656L1.00454 5.10156C0.396065 6.31092 0.0800832 7.64626 0.0820403 9.00006C0.0820403 10.4011 0.41354 11.7226 1.00304 12.8956L4.03004 10.6268C3.85354 10.1026 3.76337 9.55319 3.76304 9.00006Z" fill="#FBBC05"/>
<path d="M9.08238 3.80025C10.3499 3.80025 11.4951 4.23975 12.3951 4.95975L15.0134 2.4C13.4181 1.04025 11.3729 0.200249 9.08238 0.200249C5.52588 0.200249 2.46888 2.1915 1.00488 5.1015L4.03488 7.3665C4.73238 5.292 6.72138 3.80025 9.08238 3.80025Z" fill="#EA4335"/>
<path d="M9.08238 14.1997C6.72063 14.1997 4.73163 12.708 4.03338 10.6335L1.00488 12.8985C2.46813 15.8085 5.52513 17.7997 9.08238 17.7997C11.2769 17.7997 13.3724 17.037 14.9459 15.6067L12.0704 13.4302C11.2596 13.9305 10.2381 14.1997 9.08163 14.1997" fill="#34A853"/>
<path d="M17.6733 8.9999C17.6733 8.48015 17.5908 7.9199 17.4685 7.40015H9.08203V10.7999H13.909C13.6683 11.9594 13.0113 12.8504 12.0715 13.4301L14.9463 15.6066C16.5985 14.1051 17.6733 11.8686 17.6733 8.9999Z" fill="#4285F4"/>
</g>
<defs>
<clipPath id="clip0_139_2546">
<rect width="18" height="18" fill="white"/>
</clipPath>
</defs>
</svg>
