<svg width="32" height="32" viewBox="0 0 32 32" fill="none" xmlns="http://www.w3.org/2000/svg">
<path d="M0 16C0 7.16344 7.16344 0 16 0C24.8366 0 32 7.16344 32 16C32 24.8366 24.8366 32 16 32C7.16344 32 0 24.8366 0 16Z" fill="#FFF5EE"/>
<g clip-path="url(#clip0_129_2038)">
<path d="M7.00703 23.4848C7.09492 24.3355 7.81211 25 8.6875 25H12.0625H23.3125C24.2441 25 25 24.2441 25 23.3125V19.9375C25 19.0059 24.2441 18.25 23.3125 18.25H21.625V21.0625C21.625 21.3719 21.3719 21.625 21.0625 21.625C20.7531 21.625 20.5 21.3719 20.5 21.0625V18.25H18.25V21.0625C18.25 21.3719 17.9969 21.625 17.6875 21.625C17.3781 21.625 17.125 21.3719 17.125 21.0625V18.25H14.875V21.0625C14.875 21.3719 14.6219 21.625 14.3125 21.625C14.0031 21.625 13.75 21.3719 13.75 21.0625V18.25H10.9375C10.6281 18.25 10.375 17.9969 10.375 17.6875C10.375 17.3781 10.6281 17.125 10.9375 17.125H13.75V14.875H10.9375C10.6281 14.875 10.375 14.6219 10.375 14.3125C10.375 14.0031 10.6281 13.75 10.9375 13.75H13.75V11.5H10.9375C10.6281 11.5 10.375 11.2469 10.375 10.9375C10.375 10.6281 10.6281 10.375 10.9375 10.375H13.75V8.6875C13.75 7.75586 12.9941 7 12.0625 7H8.6875C7.75586 7 7 7.75586 7 8.6875V19.9375V23.3125C7 23.3723 7.00352 23.4285 7.00703 23.4848Z" fill="#FF9D5C"/>
</g>
<defs>
<clipPath id="clip0_129_2038">
<rect width="18" height="18" fill="white" transform="translate(7 7)"/>
</clipPath>
</defs>
</svg>
