<svg width="12" height="14" viewBox="0 0 12 14" fill="none" xmlns="http://www.w3.org/2000/svg">
<g clip-path="url(#clip0_139_2357)">
<path d="M5.6875 7C4.82555 7 3.9989 6.65759 3.3894 6.0481C2.77991 5.4386 2.4375 4.61195 2.4375 3.75C2.4375 2.88805 2.77991 2.0614 3.3894 1.4519C3.9989 0.84241 4.82555 0.5 5.6875 0.5C6.54945 0.5 7.3761 0.84241 7.9856 1.4519C8.59509 2.0614 8.9375 2.88805 8.9375 3.75C8.9375 4.61195 8.59509 5.4386 7.9856 6.0481C7.3761 6.65759 6.54945 7 5.6875 7ZM5.30918 9.62031L4.83691 8.8332C4.67441 8.56152 4.86992 8.21875 5.18477 8.21875H5.6875H6.1877C6.50254 8.21875 6.69805 8.56406 6.53555 8.8332L6.06328 9.62031L6.91133 12.7662L7.82539 9.03633C7.87617 8.83066 8.07422 8.69609 8.27988 8.74941C10.0598 9.19629 11.375 10.8061 11.375 12.7205C11.375 13.1521 11.0246 13.5 10.5955 13.5H7.24902C7.1957 13.5 7.14746 13.4898 7.10176 13.4721L7.10938 13.5H4.26562L4.27324 13.4721C4.22754 13.4898 4.17676 13.5 4.12598 13.5H0.779492C0.350391 13.5 0 13.1496 0 12.7205C0 10.8035 1.31777 9.19375 3.09512 8.74941C3.30078 8.69863 3.49883 8.8332 3.54961 9.03633L4.46367 12.7662L5.31172 9.62031H5.30918Z" fill="white"/>
</g>
<defs>
<clipPath id="clip0_139_2357">
<rect width="11.375" height="13" fill="white" transform="translate(0 0.5)"/>
</clipPath>
</defs>
</svg>
