<svg width="56" height="56" viewBox="0 0 56 56" fill="none" xmlns="http://www.w3.org/2000/svg">
<path d="M28 0C43.464 0 56 12.536 56 28C56 43.464 43.464 56 28 56C12.536 56 0 43.464 0 28C0 12.536 12.536 0 28 0Z" fill="#3CB371"/>
<path d="M28 0C43.464 0 56 12.536 56 28C56 43.464 43.464 56 28 56C12.536 56 0 43.464 0 28C0 12.536 12.536 0 28 0Z" stroke="#E5E7EB"/>
<g clip-path="url(#clip0_90_414)">
<path d="M40.5742 19.1758C41.3066 19.9082 41.3066 21.0977 40.5742 21.8301L25.5742 36.8301C24.8418 37.5625 23.6523 37.5625 22.9199 36.8301L15.4199 29.3301C14.6875 28.5977 14.6875 27.4082 15.4199 26.6758C16.1523 25.9434 17.3418 25.9434 18.0742 26.6758L24.25 32.8457L37.9258 19.1758C38.6582 18.4434 39.8477 18.4434 40.5801 19.1758H40.5742Z" fill="white"/>
</g>
<defs>
<clipPath id="clip0_90_414">
<rect width="26.25" height="30" fill="white" transform="translate(14.875 13)"/>
</clipPath>
</defs>
</svg>
