<svg width="16" height="16" viewBox="0 0 16 16" fill="none" xmlns="http://www.w3.org/2000/svg">
<path d="M0.761905 0H15.2381C15.4402 0 15.634 0.0802719 15.7768 0.223157C15.9197 0.366042 16 0.559835 16 0.761905V15.2381C16 15.4402 15.9197 15.634 15.7768 15.7768C15.634 15.9197 15.4402 16 15.2381 16H0.761905C0.559835 16 0.366042 15.9197 0.223157 15.7768C0.0802719 15.634 0 15.4402 0 15.2381L0 0.761905C0 0.559835 0.0802719 0.366042 0.223157 0.223157C0.366042 0.0802719 0.559835 0 0.761905 0ZM4.73676 13.219V6.11657H2.36952V13.219H4.73676ZM3.55276 5.25562C3.732 5.25989 3.91028 5.22827 4.07713 5.16262C4.24397 5.09698 4.396 4.99864 4.52427 4.87338C4.65255 4.74812 4.75449 4.59847 4.82408 4.43324C4.89368 4.26801 4.92953 4.09053 4.92953 3.91124C4.92953 3.73195 4.89368 3.55447 4.82408 3.38924C4.75449 3.224 4.65255 3.07436 4.52427 2.9491C4.396 2.82384 4.24397 2.72549 4.07713 2.65985C3.91028 2.59421 3.732 2.56259 3.55276 2.56686C3.19611 2.56686 2.85406 2.70854 2.60187 2.96073C2.34968 3.21292 2.208 3.55497 2.208 3.91162C2.208 4.26827 2.34968 4.61032 2.60187 4.86251C2.85406 5.1147 3.19611 5.25638 3.55276 5.25638V5.25562ZM13.6381 13.219V8.79086C13.6381 8.79086 13.6152 7.13295 12.6933 6.49905C11.8324 5.90629 11.3189 5.97105 10.944 5.95733C10.5684 5.94362 9.69295 6.02667 9.16571 6.40229C8.63771 6.77714 8.544 7.09638 8.544 7.09638V6.11657H6.25067V13.2198H8.64305V8.99962C8.64305 8.99962 8.81828 7.90248 10.0404 7.88876C11.2625 7.87429 11.2069 8.99962 11.2069 8.99962L11.2625 13.219H13.6381Z" fill="#0B66C1"/>
</svg>
