<svg width="15" height="15" viewBox="0 0 15 15" fill="none" xmlns="http://www.w3.org/2000/svg">
<g clip-path="url(#clip0_129_1689)">
<g clip-path="url(#clip1_129_1689)">
<path d="M14.0625 0.937666C14.0625 0.559736 13.834 0.216963 13.4824 0.0704786C13.1309 -0.0760058 12.7295 0.00602548 12.46 0.272627L11.1826 1.5529C9.77637 2.95915 7.86914 3.75017 5.87988 3.75017H5.625H4.6875H1.875C0.84082 3.75017 0 4.59099 0 5.62517V8.43767C0 9.47185 0.84082 10.3127 1.875 10.3127V14.0627C1.875 14.5812 2.29395 15.0002 2.8125 15.0002H4.6875C5.20605 15.0002 5.625 14.5812 5.625 14.0627V10.3127H5.87988C7.86914 10.3127 9.77637 11.1037 11.1826 12.5099L12.46 13.7873C12.7295 14.0568 13.1309 14.1359 13.4824 13.9894C13.834 13.8429 14.0625 13.5031 14.0625 13.1222V8.80095C14.6074 8.54313 15 7.8488 15 7.03142C15 6.21403 14.6074 5.5197 14.0625 5.26188V0.937666ZM12.1875 3.18474V7.03142V10.8781C10.4648 9.31071 8.21777 8.43767 5.87988 8.43767H5.625V5.62517H5.87988C8.21777 5.62517 10.4648 4.75212 12.1875 3.18474Z" fill="#17B0A7"/>
</g>
</g>
<defs>
<clipPath id="clip0_129_1689">
<rect width="15" height="15" fill="white"/>
</clipPath>
<clipPath id="clip1_129_1689">
<rect width="15" height="15" fill="white"/>
</clipPath>
</defs>
</svg>
