<svg width="40" height="40" viewBox="0 0 40 40" fill="none" xmlns="http://www.w3.org/2000/svg">
<g clip-path="url(#clip0_129_1472)">
<path d="M34.4545 0H5.54545C2.45455 0 0 2.45455 0 5.54545V34.4545C0 37.5455 2.45455 40 5.54545 40H34.4545C37.5455 40 40 37.5455 40 34.4545V5.54545C40 2.45455 37.5455 0 34.4545 0ZM24.2727 6.18182L21.1818 11.7273H17L13.9091 6.18182H24.2727ZM19.0909 34.7273L13.2727 29.9091L16.9091 14.2727H21.0909L24.8182 29.9091L19.0909 34.7273ZM28 22.6364L25.3636 21.7273L23.5455 14.4545L28.7273 19.9091L28 22.6364Z" fill="#17B0A7"/>
</g>
<defs>
<clipPath id="clip0_129_1472">
<rect width="40" height="40" fill="white"/>
</clipPath>
</defs>
</svg>
