<svg width="19" height="15" viewBox="0 0 19 15" fill="none" xmlns="http://www.w3.org/2000/svg">
<g clip-path="url(#clip0_129_1676)">
<g clip-path="url(#clip1_129_1676)">
<path d="M1.72572 1.2336C1.81361 1.05488 2.00697 0.952345 2.20326 0.978713L9.37513 1.8752L16.547 0.978713C16.7433 0.955275 16.9367 1.05781 17.0245 1.2336L18.2462 3.67695C18.5099 4.20137 18.2286 4.83711 17.6661 4.99824L12.879 6.36641C12.4718 6.4836 12.0353 6.31074 11.8185 5.94746L9.37513 1.8752L6.93177 5.94746C6.71498 6.31074 6.27845 6.4836 5.87123 6.36641L1.08705 4.99824C0.521616 4.83711 0.243296 4.20137 0.506968 3.67695L1.72572 1.2336ZM9.40736 3.7502L11.0158 6.42793C11.4523 7.15449 12.3224 7.5002 13.1398 7.26582L16.8751 6.19942V11.092C16.8751 11.7365 16.4357 12.299 15.8087 12.4572L9.82923 13.9514C9.53041 14.0275 9.21693 14.0275 8.92103 13.9514L2.94154 12.4572C2.31458 12.2961 1.87513 11.7336 1.87513 11.0891V6.19649L5.61341 7.26582C6.42787 7.5002 7.30091 7.15449 7.73744 6.42793L9.34291 3.7502H9.40736Z" fill="#17B0A7"/>
</g>
</g>
<defs>
<clipPath id="clip0_129_1676">
<rect width="18.75" height="15" fill="white"/>
</clipPath>
<clipPath id="clip1_129_1676">
<rect width="18.75" height="15" fill="white"/>
</clipPath>
</defs>
</svg>
