<svg width="18" height="18" viewBox="0 0 18 18" fill="none" xmlns="http://www.w3.org/2000/svg">
<path d="M13.5808 5.6249H11.8124C11.1901 5.6249 10.6874 6.12764 10.6874 6.7499C10.6874 7.37217 11.1901 7.8749 11.8124 7.8749H16.3124C16.9347 7.8749 17.4374 7.37217 17.4374 6.7499V2.2499C17.4374 1.62764 16.9347 1.1249 16.3124 1.1249C15.6901 1.1249 15.1874 1.62764 15.1874 2.2499V4.0499L14.5687 3.43115C11.4925 0.35498 6.50732 0.35498 3.43115 3.43115C0.35498 6.50732 0.35498 11.4925 3.43115 14.5687C6.50732 17.6448 11.4925 17.6448 14.5687 14.5687C15.0081 14.1292 15.0081 13.4155 14.5687 12.9761C14.1292 12.5366 13.4155 12.5366 12.9761 12.9761C10.7788 15.1733 7.21748 15.1733 5.02022 12.9761C2.82295 10.7788 2.82295 7.21748 5.02022 5.02022C7.21748 2.82295 10.7788 2.82295 12.9761 5.02022L13.5808 5.6249Z" fill="#1A4D8C"/>
</svg>
