<svg width="32" height="32" viewBox="0 0 32 32" fill="none" xmlns="http://www.w3.org/2000/svg">
<path d="M0 16C0 7.16344 7.16344 0 16 0C24.8366 0 32 7.16344 32 16C32 24.8366 24.8366 32 16 32C7.16344 32 0 24.8366 0 16Z" fill="#FFF5EE"/>
<g clip-path="url(#clip0_129_2046)">
<path d="M16 25C18.3869 25 20.6761 24.0518 22.364 22.364C24.0518 20.6761 25 18.3869 25 16C25 13.6131 24.0518 11.3239 22.364 9.63604C20.6761 7.94821 18.3869 7 16 7C13.6131 7 11.3239 7.94821 9.63604 9.63604C7.94821 11.3239 7 13.6131 7 16C7 18.3869 7.94821 20.6761 9.63604 22.364C11.3239 24.0518 13.6131 25 16 25ZM16 11.5C16.4676 11.5 16.8438 11.8762 16.8438 12.3438V16.2812C16.8438 16.7488 16.4676 17.125 16 17.125C15.5324 17.125 15.1562 16.7488 15.1562 16.2812V12.3438C15.1562 11.8762 15.5324 11.5 16 11.5ZM14.875 19.375C14.875 19.0766 14.9935 18.7905 15.2045 18.5795C15.4155 18.3685 15.7016 18.25 16 18.25C16.2984 18.25 16.5845 18.3685 16.7955 18.5795C17.0065 18.7905 17.125 19.0766 17.125 19.375C17.125 19.6734 17.0065 19.9595 16.7955 20.1705C16.5845 20.3815 16.2984 20.5 16 20.5C15.7016 20.5 15.4155 20.3815 15.2045 20.1705C14.9935 19.9595 14.875 19.6734 14.875 19.375Z" fill="#FF9D5C"/>
</g>
<defs>
<clipPath id="clip0_129_2046">
<rect width="18" height="18" fill="white" transform="translate(7 7)"/>
</clipPath>
</defs>
</svg>
