<svg width="19" height="15" viewBox="0 0 19 15" fill="none" xmlns="http://www.w3.org/2000/svg">
<g clip-path="url(#clip0_129_1683)">
<g clip-path="url(#clip1_129_1683)">
<path d="M11.5076 0.0352771C11.0095 -0.108278 10.491 0.181762 10.3474 0.679808L6.59741 13.8048C6.45386 14.3029 6.7439 14.8214 7.24194 14.965C7.73999 15.1085 8.25854 14.8185 8.4021 14.3204L12.1521 1.19543C12.2957 0.697387 12.0056 0.178832 11.5076 0.0352771ZM13.8689 3.55383C13.5027 3.92004 13.5027 4.51477 13.8689 4.88098L16.4851 7.50012L13.866 10.1193C13.4998 10.4855 13.4998 11.0802 13.866 11.4464C14.2322 11.8126 14.8269 11.8126 15.1931 11.4464L18.4744 8.16516C18.8406 7.79895 18.8406 7.20422 18.4744 6.83801L15.1931 3.55676C14.8269 3.19055 14.2322 3.19055 13.866 3.55676L13.8689 3.55383ZM4.88354 3.55383C4.51733 3.18762 3.92261 3.18762 3.5564 3.55383L0.275146 6.83508C-0.0910645 7.20129 -0.0910645 7.79602 0.275146 8.16223L3.5564 11.4435C3.92261 11.8097 4.51733 11.8097 4.88354 11.4435C5.24976 11.0773 5.24976 10.4825 4.88354 10.1163L2.2644 7.50012L4.88354 4.88098C5.24976 4.51477 5.24976 3.92004 4.88354 3.55383Z" fill="#17B0A7"/>
</g>
</g>
<defs>
<clipPath id="clip0_129_1683">
<rect width="18.75" height="15" fill="white"/>
</clipPath>
<clipPath id="clip1_129_1683">
<rect width="18.75" height="15" fill="white"/>
</clipPath>
</defs>
</svg>
