<svg width="24" height="24" viewBox="0 0 24 24" fill="none" xmlns="http://www.w3.org/2000/svg">
<g clip-path="url(#clip0_129_2063)">
<g clip-path="url(#clip1_129_2063)">
<g clip-path="url(#clip2_129_2063)">
<path d="M15.9062 18C16.3562 16.5047 17.2891 15.2297 18.2125 13.9594C18.4563 13.6266 18.7 13.2937 18.9344 12.9562C19.8625 11.6203 20.4062 10.0031 20.4062 8.25469C20.4062 3.69375 16.7125 0 12.1562 0C7.6 0 3.90625 3.69375 3.90625 8.25C3.90625 9.99844 4.45 11.6203 5.37813 12.9516C5.6125 13.2891 5.85625 13.6219 6.1 13.9547C7.02812 15.225 7.96094 16.5047 8.40625 17.9953H15.9062V18ZM12.1562 24C14.2281 24 15.9062 22.3219 15.9062 20.25V19.5H8.40625V20.25C8.40625 22.3219 10.0844 24 12.1562 24ZM8.40625 8.25C8.40625 8.6625 8.06875 9 7.65625 9C7.24375 9 6.90625 8.6625 6.90625 8.25C6.90625 5.34844 9.25469 3 12.1562 3C12.5688 3 12.9062 3.3375 12.9062 3.75C12.9062 4.1625 12.5688 4.5 12.1562 4.5C10.0844 4.5 8.40625 6.17812 8.40625 8.25Z" fill="#17B0A7"/>
</g>
</g>
</g>
<defs>
<clipPath id="clip0_129_2063">
<rect width="24" height="24" fill="white"/>
</clipPath>
<clipPath id="clip1_129_2063">
<rect width="18" height="24" fill="white" transform="translate(3.15625)"/>
</clipPath>
<clipPath id="clip2_129_2063">
<rect width="18" height="24" fill="white" transform="translate(3.15625)"/>
</clipPath>
</defs>
</svg>
