<svg width="32" height="32" viewBox="0 0 32 32" fill="none" xmlns="http://www.w3.org/2000/svg">
<path d="M0 16C0 7.16344 7.16344 0 16 0C24.8366 0 32 7.16344 32 16C32 24.8366 24.8366 32 16 32C7.16344 32 0 24.8366 0 16Z" fill="#F7F9FC"/>
<g clip-path="url(#clip0_90_963)">
<path d="M11.188 20.125C16.1251 20.125 20.1255 16.7391 20.1255 12.5625C20.1255 8.38594 16.1251 5 11.188 5C6.25086 5 2.25047 8.38594 2.25047 12.5625C2.25047 14.2211 2.88211 15.7551 3.95203 17.0055C3.80164 17.4094 3.5782 17.766 3.34188 18.0668C3.13563 18.3332 2.92508 18.5395 2.77039 18.6812C2.69305 18.75 2.6286 18.8059 2.58563 18.8402C2.56414 18.8574 2.54695 18.8703 2.53836 18.8746L2.52977 18.8832C2.29344 19.0594 2.19031 19.3687 2.28485 19.648C2.37938 19.9273 2.64149 20.125 2.93797 20.125C3.87469 20.125 4.82 19.8844 5.60633 19.5879C6.00164 19.4375 6.37117 19.2699 6.69344 19.098C8.01258 19.7512 9.54656 20.125 11.188 20.125ZM21.5005 12.5625C21.5005 17.3879 17.2423 21.023 12.1977 21.457C13.2419 24.6539 16.7052 27 20.813 27C22.4544 27 23.9884 26.6262 25.3118 25.973C25.6341 26.1449 25.9993 26.3125 26.3946 26.4629C27.1809 26.7594 28.1263 27 29.063 27C29.3595 27 29.6259 26.8066 29.7161 26.523C29.8063 26.2395 29.7075 25.9301 29.4669 25.7539L29.4583 25.7453C29.4497 25.7367 29.4325 25.7281 29.411 25.7109C29.368 25.6766 29.3036 25.625 29.2262 25.552C29.0716 25.4102 28.861 25.2039 28.6548 24.9375C28.4184 24.6367 28.195 24.2758 28.0446 23.8762C29.1145 22.6301 29.7462 21.0961 29.7462 19.4332C29.7462 15.4457 26.0981 12.1758 21.4704 11.8922C21.4876 12.1113 21.4962 12.3348 21.4962 12.5582L21.5005 12.5625Z" fill="#1A4D8C"/>
</g>
<defs>
<clipPath id="clip0_90_963">
<rect width="27.5" height="22" fill="white" transform="translate(2.25 5)"/>
</clipPath>
</defs>
</svg>
