<svg width="32" height="32" viewBox="0 0 32 32" fill="none" xmlns="http://www.w3.org/2000/svg">
<path d="M0 16C0 7.16344 7.16344 0 16 0C24.8366 0 32 7.16344 32 16C32 24.8366 24.8366 32 16 32C7.16344 32 0 24.8366 0 16Z" fill="#F7F9FC"/>
<g clip-path="url(#clip0_90_948)">
<path d="M6.375 10.5C6.375 9.04131 6.95446 7.64236 7.98591 6.61091C9.01736 5.57946 10.4163 5 11.875 5C13.3337 5 14.7326 5.57946 15.7641 6.61091C16.7955 7.64236 17.375 9.04131 17.375 10.5C17.375 11.9587 16.7955 13.3576 15.7641 14.3891C14.7326 15.4205 13.3337 16 11.875 16C10.4163 16 9.01736 15.4205 7.98591 14.3891C6.95446 13.3576 6.375 11.9587 6.375 10.5ZM2.25 25.7238C2.25 21.4914 5.67891 18.0625 9.91133 18.0625H13.8387C18.0711 18.0625 21.5 21.4914 21.5 25.7238C21.5 26.4285 20.9285 27 20.2238 27H3.52617C2.82148 27 2.25 26.4285 2.25 25.7238ZM28.4309 27H22.5055C22.7375 26.5961 22.875 26.1277 22.875 25.625V25.2812C22.875 22.673 21.7105 20.3313 19.8758 18.7586C19.9789 18.7543 20.0777 18.75 20.1809 18.75H22.8191C26.6477 18.75 29.75 21.8523 29.75 25.6809C29.75 26.4113 29.157 27 28.4309 27ZM20.8125 16C19.4805 16 18.2773 15.4586 17.4051 14.5863C18.2516 13.4434 18.75 12.0297 18.75 10.5C18.75 9.34844 18.4664 8.26133 17.9637 7.30742C18.7629 6.72305 19.7469 6.375 20.8125 6.375C23.4723 6.375 25.625 8.52773 25.625 11.1875C25.625 13.8473 23.4723 16 20.8125 16Z" fill="#1A4D8C"/>
</g>
<defs>
<clipPath id="clip0_90_948">
<rect width="27.5" height="22" fill="white" transform="translate(2.25 5)"/>
</clipPath>
</defs>
</svg>
