<svg width="18" height="18" viewBox="0 0 18 18" fill="none" xmlns="http://www.w3.org/2000/svg">
<g clip-path="url(#clip0_129_1974)">
<g clip-path="url(#clip1_129_1974)">
<path d="M10.125 3.84268V12.3751C10.125 12.9974 9.62227 13.5001 9 13.5001C8.37773 13.5001 7.875 12.9974 7.875 12.3751V3.84268L5.29453 6.42314C4.85508 6.8626 4.14141 6.8626 3.70195 6.42314C3.2625 5.98369 3.2625 5.27002 3.70195 4.83057L8.20195 0.330566C8.64141 -0.108887 9.35508 -0.108887 9.79453 0.330566L14.2945 4.83057C14.734 5.27002 14.734 5.98369 14.2945 6.42314C13.8551 6.8626 13.1414 6.8626 12.702 6.42314L10.125 3.84268ZM2.25 12.3751H6.75C6.75 13.6161 7.75898 14.6251 9 14.6251C10.241 14.6251 11.25 13.6161 11.25 12.3751H15.75C16.991 12.3751 18 13.3841 18 14.6251V15.7501C18 16.9911 16.991 18.0001 15.75 18.0001H2.25C1.00898 18.0001 0 16.9911 0 15.7501V14.6251C0 13.3841 1.00898 12.3751 2.25 12.3751ZM15.1875 16.0313C15.4113 16.0313 15.6259 15.9425 15.7841 15.7842C15.9424 15.626 16.0312 15.4114 16.0312 15.1876C16.0312 14.9638 15.9424 14.7492 15.7841 14.591C15.6259 14.4327 15.4113 14.3438 15.1875 14.3438C14.9637 14.3438 14.7491 14.4327 14.5909 14.591C14.4326 14.7492 14.3438 14.9638 14.3438 15.1876C14.3438 15.4114 14.4326 15.626 14.5909 15.7842C14.7491 15.9425 14.9637 16.0313 15.1875 16.0313Z" fill="white"/>
</g>
</g>
<defs>
<clipPath id="clip0_129_1974">
<rect width="18" height="18" fill="white"/>
</clipPath>
<clipPath id="clip1_129_1974">
<rect width="18" height="18" fill="white"/>
</clipPath>
</defs>
</svg>
