<svg width="12" height="14" viewBox="0 0 12 14" fill="none" xmlns="http://www.w3.org/2000/svg">
<g clip-path="url(#clip0_139_2366)">
<path d="M7.71875 3.75C7.71875 3.21128 7.50474 2.69462 7.12381 2.31369C6.74288 1.93276 6.22622 1.71875 5.6875 1.71875C5.14878 1.71875 4.63212 1.93276 4.25119 2.31369C3.87026 2.69462 3.65625 3.21128 3.65625 3.75C3.65625 4.28872 3.87026 4.80538 4.25119 5.18631C4.63212 5.56724 5.14878 5.78125 5.6875 5.78125C6.22622 5.78125 6.74288 5.56724 7.12381 5.18631C7.50474 4.80538 7.71875 4.28872 7.71875 3.75ZM2.4375 3.75C2.4375 2.88805 2.77991 2.0614 3.3894 1.4519C3.9989 0.84241 4.82555 0.5 5.6875 0.5C6.54945 0.5 7.3761 0.84241 7.9856 1.4519C8.59509 2.0614 8.9375 2.88805 8.9375 3.75C8.9375 4.61195 8.59509 5.4386 7.9856 6.0481C7.3761 6.65759 6.54945 7 5.6875 7C4.82555 7 3.9989 6.65759 3.3894 6.0481C2.77991 5.4386 2.4375 4.61195 2.4375 3.75ZM1.25176 12.2812H10.1232C9.89727 10.674 8.51602 9.4375 6.84785 9.4375H4.52715C2.85898 9.4375 1.47773 10.674 1.25176 12.2812ZM0 12.7459C0 10.2449 2.02617 8.21875 4.52715 8.21875H6.84785C9.34883 8.21875 11.375 10.2449 11.375 12.7459C11.375 13.1623 11.0373 13.5 10.6209 13.5H0.754102C0.337695 13.5 0 13.1623 0 12.7459Z" fill="white"/>
</g>
<defs>
<clipPath id="clip0_139_2366">
<rect width="11.375" height="13" fill="white" transform="translate(0 0.5)"/>
</clipPath>
</defs>
</svg>
