<svg width="137" height="29" viewBox="0 0 137 29" fill="none" xmlns="http://www.w3.org/2000/svg">
<rect opacity="0.4" y="0.5" width="12.7826" height="28" fill="#1A4D8C"/>
<path d="M19.4785 1.7168C21.8315 1.71696 23.7392 3.62448 23.7393 5.97754V19.9775C23.7393 22.3307 21.8316 24.2381 19.4785 24.2383H6.08691V15.7168H14.3047C18.1705 15.7166 21.3047 12.5827 21.3047 8.7168C21.3047 4.85093 18.1705 1.71701 14.3047 1.7168H19.4785Z" fill="#1A4D8C"/>
<path d="M6.08691 5.36938H12.4782C14.3272 5.36938 15.826 6.86826 15.826 8.71721C15.826 10.5662 14.3272 12.065 12.4782 12.065H6.08691V5.36938Z" fill="#1A4D8C"/>
<path d="M33.0035 22V7.45455H38.7421C39.8453 7.45455 40.7852 7.66525 41.5617 8.08665C42.3382 8.50331 42.9301 9.08333 43.3373 9.8267C43.7492 10.5653 43.9552 11.4176 43.9552 12.3835C43.9552 13.3494 43.7468 14.2017 43.3302 14.9403C42.9135 15.679 42.3098 16.2543 41.5191 16.6662C40.7331 17.0781 39.7814 17.2841 38.664 17.2841H35.0063V14.8196H38.1668C38.7587 14.8196 39.2464 14.7178 39.6299 14.5142C40.0181 14.3059 40.307 14.0194 40.4964 13.6548C40.6905 13.2855 40.7876 12.8617 40.7876 12.3835C40.7876 11.9006 40.6905 11.4792 40.4964 11.1193C40.307 10.7547 40.0181 10.473 39.6299 10.2741C39.2416 10.0705 38.7492 9.96875 38.1526 9.96875H36.0787V22H33.0035ZM44.7959 22V11.0909H47.7291V12.9943H47.8427C48.0416 12.3172 48.3754 11.8059 48.8442 11.4602C49.3129 11.1098 49.8527 10.9347 50.4635 10.9347C50.615 10.9347 50.7783 10.9441 50.9535 10.9631C51.1287 10.982 51.2826 11.008 51.4152 11.0412V13.7259C51.2731 13.6832 51.0766 13.6454 50.8257 13.6122C50.5747 13.5791 50.3451 13.5625 50.1368 13.5625C49.6917 13.5625 49.294 13.6596 48.9436 13.8537C48.5979 14.0431 48.3233 14.3082 48.1197 14.6491C47.9209 14.9901 47.8214 15.383 47.8214 15.8281V22H44.7959ZM56.3432 22.2131C55.2211 22.2131 54.2552 21.9858 53.4455 21.5312C52.6406 21.072 52.0203 20.4233 51.5847 19.5852C51.1491 18.7424 50.9313 17.7457 50.9313 16.5952C50.9313 15.473 51.1491 14.4882 51.5847 13.6406C52.0203 12.7931 52.6335 12.1326 53.4242 11.6591C54.2197 11.1856 55.1524 10.9489 56.2225 10.9489C56.9422 10.9489 57.6122 11.0649 58.2324 11.2969C58.8574 11.5241 59.4019 11.8674 59.866 12.3267C60.3347 12.786 60.6993 13.3636 60.9597 14.0597C61.2201 14.7509 61.3503 15.5606 61.3503 16.4886V17.3196H52.1387V15.4446H58.5023C58.5023 15.009 58.4076 14.6231 58.2182 14.2869C58.0288 13.9508 57.7661 13.688 57.4299 13.4986C57.0984 13.3045 56.7126 13.2074 56.2722 13.2074C55.8129 13.2074 55.4057 13.3139 55.0506 13.527C54.7002 13.7353 54.4256 14.017 54.2268 14.3722C54.0279 14.7225 53.9261 15.1132 53.9214 15.544V17.3267C53.9214 17.8665 54.0208 18.3329 54.2197 18.7259C54.4233 19.1188 54.7097 19.4219 55.079 19.6349C55.4483 19.848 55.8863 19.9545 56.393 19.9545C56.7291 19.9545 57.0369 19.9072 57.3162 19.8125C57.5956 19.7178 57.8347 19.5758 58.0336 19.3864C58.2324 19.197 58.384 18.965 58.4881 18.6903L61.2864 18.875C61.1444 19.5473 60.8532 20.1345 60.4128 20.6364C59.9772 21.1335 59.4138 21.5218 58.7225 21.8011C58.0359 22.0758 57.2429 22.2131 56.3432 22.2131ZM62.2248 26.0909V11.0909H65.2077V12.9233H65.3427C65.4752 12.6297 65.667 12.3314 65.918 12.0284C66.1736 11.7206 66.5051 11.465 66.9123 11.2614C67.3242 11.053 67.8356 10.9489 68.4464 10.9489C69.2418 10.9489 69.9757 11.1572 70.6481 11.5739C71.3204 11.9858 71.8578 12.6084 72.2603 13.4418C72.6627 14.2704 72.864 15.3097 72.864 16.5597C72.864 17.7765 72.6675 18.804 72.2745 19.642C71.8862 20.4754 71.3559 21.1075 70.6836 21.5384C70.016 21.9645 69.2679 22.1776 68.4393 22.1776C67.8521 22.1776 67.3526 22.0805 66.9407 21.8864C66.5335 21.6922 66.1997 21.4484 65.9393 21.1548C65.6788 20.8565 65.48 20.5559 65.3427 20.2528H65.2503V26.0909H62.2248ZM65.1864 16.5455C65.1864 17.1941 65.2764 17.7599 65.4563 18.2429C65.6362 18.7259 65.8966 19.1023 66.2376 19.3722C66.5785 19.6373 66.9928 19.7699 67.4805 19.7699C67.9729 19.7699 68.3895 19.6349 68.7305 19.3651C69.0714 19.0904 69.3294 18.7116 69.5046 18.2287C69.6845 17.741 69.7745 17.1799 69.7745 16.5455C69.7745 15.9157 69.6869 15.3617 69.5117 14.8835C69.3365 14.4053 69.0785 14.0312 68.7376 13.7614C68.3966 13.4915 67.9776 13.3565 67.4805 13.3565C66.988 13.3565 66.5714 13.4867 66.2305 13.7472C65.8943 14.0076 65.6362 14.3769 65.4563 14.8551C65.2764 15.3333 65.1864 15.8968 65.1864 16.5455ZM75.6596 22L72.6908 11.0909H75.7519L77.4422 18.4205H77.5417L79.303 11.0909H82.3073L84.0971 18.3778H84.1894L85.8513 11.0909H88.9053L85.9437 22H82.7405L80.8655 15.1392H80.7306L78.8556 22H75.6596ZM89.4193 22V11.0909H92.4449V22H89.4193ZM90.9392 9.68466C90.4894 9.68466 90.1035 9.53551 89.7815 9.23722C89.4643 8.93419 89.3057 8.57197 89.3057 8.15057C89.3057 7.7339 89.4643 7.37642 89.7815 7.07812C90.1035 6.77509 90.4894 6.62358 90.9392 6.62358C91.389 6.62358 91.7725 6.77509 92.0898 7.07812C92.4117 7.37642 92.5727 7.7339 92.5727 8.15057C92.5727 8.57197 92.4117 8.93419 92.0898 9.23722C91.7725 9.53551 91.389 9.68466 90.9392 9.68466ZM102.845 14.2017L100.075 14.3722C100.028 14.1354 99.9262 13.9223 99.7699 13.733C99.6137 13.5388 99.4077 13.3849 99.152 13.2713C98.9011 13.1529 98.6004 13.0938 98.2501 13.0938C97.7813 13.0938 97.3859 13.1932 97.064 13.392C96.742 13.5862 96.581 13.8466 96.581 14.1733C96.581 14.4337 96.6852 14.6539 96.8935 14.8338C97.1019 15.0137 97.4593 15.1581 97.966 15.267L99.9404 15.6648C101.001 15.8826 101.792 16.233 102.313 16.7159C102.833 17.1989 103.094 17.8333 103.094 18.6193C103.094 19.3343 102.883 19.9616 102.462 20.5014C102.045 21.0412 101.472 21.4626 100.743 21.7656C100.019 22.0639 99.1828 22.2131 98.2359 22.2131C96.7917 22.2131 95.6412 21.9124 94.7841 21.3111C93.9319 20.705 93.4323 19.8812 93.2856 18.8395L96.2614 18.6832C96.3514 19.1236 96.5692 19.4598 96.9148 19.6918C97.2605 19.919 97.7032 20.0327 98.243 20.0327C98.7733 20.0327 99.1994 19.9309 99.5214 19.7273C99.8481 19.5189 100.014 19.2514 100.019 18.9247C100.014 18.6501 99.8978 18.4252 99.6705 18.25C99.4432 18.0701 99.0929 17.9328 98.6194 17.8381L96.7302 17.4616C95.6648 17.2486 94.8717 16.8793 94.3509 16.3537C93.8348 15.8281 93.5768 15.1581 93.5768 14.3438C93.5768 13.643 93.7662 13.0393 94.1449 12.5327C94.5285 12.026 95.0659 11.6354 95.7572 11.3608C96.4532 11.0862 97.2676 10.9489 98.2003 10.9489C99.5782 10.9489 100.662 11.2401 101.453 11.8224C102.249 12.4048 102.713 13.1979 102.845 14.2017ZM108.871 22.2131C107.748 22.2131 106.783 21.9858 105.973 21.5312C105.168 21.072 104.548 20.4233 104.112 19.5852C103.676 18.7424 103.459 17.7457 103.459 16.5952C103.459 15.473 103.676 14.4882 104.112 13.6406C104.548 12.7931 105.161 12.1326 105.952 11.6591C106.747 11.1856 107.68 10.9489 108.75 10.9489C109.47 10.9489 110.14 11.0649 110.76 11.2969C111.385 11.5241 111.929 11.8674 112.393 12.3267C112.862 12.786 113.227 13.3636 113.487 14.0597C113.747 14.7509 113.878 15.5606 113.878 16.4886V17.3196H104.666V15.4446H111.03C111.03 15.009 110.935 14.6231 110.746 14.2869C110.556 13.9508 110.293 13.688 109.957 13.4986C109.626 13.3045 109.24 13.2074 108.8 13.2074C108.34 13.2074 107.933 13.3139 107.578 13.527C107.228 13.7353 106.953 14.017 106.754 14.3722C106.555 14.7225 106.453 15.1132 106.449 15.544V17.3267C106.449 17.8665 106.548 18.3329 106.747 18.7259C106.951 19.1188 107.237 19.4219 107.606 19.6349C107.976 19.848 108.414 19.9545 108.92 19.9545C109.256 19.9545 109.564 19.9072 109.844 19.8125C110.123 19.7178 110.362 19.5758 110.561 19.3864C110.76 19.197 110.911 18.965 111.015 18.6903L113.814 18.875C113.672 19.5473 113.381 20.1345 112.94 20.6364C112.505 21.1335 111.941 21.5218 111.25 21.8011C110.563 22.0758 109.77 22.2131 108.871 22.2131Z" fill="#1A4D8C"/>
</svg>
